<svg xmlns="http://www.w3.org/2000/svg" viewBox="0 0 64 64">
  <circle cx="32" cy="32" r="31" fill="#f7fbf6"/>
  <path d="M32 3a29 29 0 0 1 26 16 30 30 0 0 0-21 6 30 30 0 0 0-5-22Z" fill="#8ec63f"/>
  <path d="M58 19a29 29 0 0 1-2 29 30 30 0 0 0-19-23 30 30 0 0 1 21-6Z" fill="#0c7c70"/>
  <path d="M56 48a29 29 0 0 1-27 13 30 30 0 0 0 8-36 30 30 0 0 1 19 23Z" fill="#2b75ba"/>
  <path d="M29 61A29 29 0 0 1 6 43a30 30 0 0 0 31-18 30 30 0 0 1-8 36Z" fill="#8ec63f"/>
  <path d="M6 43A29 29 0 0 1 32 3a30 30 0 0 0 5 22A30 30 0 0 1 6 43Z" fill="#0c7c70"/>
  <circle cx="32" cy="32" r="12" fill="#fbfbf7"/>
</svg>
